<svg width="128" height="128" viewBox="0 0 33.867 33.867" xmlns="http://www.w3.org/2000/svg"><path d="M20.339 33.827c-1.554-.061-2.168-.155-2.901-.445-.325-.129-.355-.127-.959.069-1.16.376-1.42.388-8.175.361l-6.34-.024-.37-.216A3.044 3.044 0 01.406 32.31l-.219-.44V1.918l.175-.373C.622.988 1.125.494 1.68.246l.484-.215L17.168.016 32.171 0l.404.213c.516.271 1.005.755 1.256 1.242l.198.382.02 14.926c.014 9.723-.007 15.029-.059 15.221-.193.71-1.05 1.565-1.764 1.76-.376.104-9.718.169-11.887.083zm-5.174-1.729c.06-.054-1.033-1.116-2.015-1.956-2.307-1.973-3.954-2.747-6.05-2.843-1.17-.053-1.136-.114-.471.844.49.707 1.42 1.699 2.024 2.158 1.706 1.299 3.918 2.004 5.87 1.87.334-.022.622-.055.642-.073zm6.167.013c.856-.128 1.98-.47 2.66-.808 1.533-.764 3.02-2.158 3.9-3.657l.23-.391-1.005.044c-1.488.065-2.824.518-4.355 1.476-1.022.64-2.836 2.155-3.504 2.929l-.377.436.265.032c.6.074 1.441.05 2.186-.061zm-13.525-.219c-.074-.056-.36-.263-.637-.46-1.077-.768-2.344-2.316-3.073-3.755-.41-.807-.736-1.693-.653-1.775.032-.032.349-.122.703-.2.484-.105 1.01-.14 2.118-.14.81-.001 1.474-.006 1.474-.012s-.09-.203-.199-.44c-.425-.918-.488-1.333-.484-3.184.001-.945.03-1.852.064-2.017.059-.29.072-.3.4-.298.406.001 1.603.246 2.278.466 1.079.35 2.323 1.05 3.107 1.745l.36.32.414-.847c.719-1.47 1.511-2.564 2.687-3.713l.726-.709.744.71a12.832 12.832 0 012.809 3.966c.16.36.298.666.304.678.007.012.172-.124.367-.302 1.308-1.19 3.443-2.142 5.13-2.287l.573-.05.052.23c.029.127.076.902.105 1.722.07 1.982-.104 3.026-.622 3.747-.087.12-.158.232-.158.25 0 .017.543.016 1.206-.002 1.164-.033 2.496.102 3.045.309.183.068.183.074.062.492-.476 1.642-2.186 4.024-3.704 5.157-.268.2-.524.396-.568.436-.049.043.997.062 2.598.047l2.68-.026.207-.193.209-.194V2.27l-.2-.196-.198-.197-14.7.02c-13.988.02-14.707.028-14.844.164-.137.135-.145.85-.165 14.785l-.021 14.643.166.208c.191.241.159.239 3.712.276 1.68.018 2.035.003 1.926-.08zm13.467-12.006l-.37-.602v-7.377c0-6.268.017-7.383.114-7.42.062-.024.409-.037.77-.029.483.011.677.047.734.135.048.075.06 2.97.033 7.785l-.043 7.665-.38.221c-.209.122-.404.222-.434.223-.03 0-.221-.27-.424-.6zm-8.77-7.416V4.51l3.655.021 3.655.02.023.828c.015.541-.01.866-.07.939-.077.09-.587.111-2.83.111H14.2l-.014 5.332c-.018 6.833.004 6.303-.285 6.648a8.018 8.018 0 00-.935 1.404c-.114.223-.264.452-.334.51-.116.094-.128-.615-.128-7.854zM4.8 14.37c-.072-.186-.057-1.494.019-1.612.05-.079.771-.096 3.33-.08l3.266.021.023.787c.015.512-.01.826-.07.899-.078.092-.654.111-3.306.111-2.855 0-3.218-.014-3.262-.126zm10.55.032c-.145-.143-.134-1.534.012-1.654.078-.065.737-.085 2.241-.07l2.13.021v1.758l-2.142.02c-1.6.017-2.168-.003-2.242-.075zm10.55-2.276c-.19-.049-2.33-2.323-2.33-2.474 0-.238.247-.635.479-.77.128-.075.357-.137.51-.137.239 0 .36.086.904.64.346.35.64.638.655.638.014 0 .254-.314.533-.698 1.192-1.641 2.357-3.183 2.476-3.275.411-.321 1.39.189 1.39.724 0 .066-.303.528-.672 1.026-2.734 3.689-3.16 4.238-3.341 4.306a.902.902 0 01-.605.02zM4.85 10.451c-.072-.029-.1-.29-.1-.91 0-.837.007-.873.181-.915.1-.024 1.6-.034 3.332-.022l3.15.023.023.837c.02.719.003.852-.116.939-.108.077-.864.1-3.254.094-1.713-.003-3.16-.024-3.216-.046zm10.448-.074c-.081-.21-.055-1.47.035-1.636.08-.147.19-.154 2.205-.154 1.542 0 2.148.026 2.218.096.063.062.097.383.097.91 0 .668-.023.822-.128.862-.07.027-1.084.049-2.253.049-1.863 0-2.13-.016-2.174-.127zm-10.413-4c-.03-.03-.055-.442-.055-.916 0-.783.015-.87.163-.949.111-.058 1.146-.079 3.234-.063 2.623.02 3.082.042 3.149.144.043.066.068.497.057.958l-.02.84-3.237.02c-1.78.011-3.26-.004-3.291-.033zm12.8 24.675c.652-.673.97-1.132 1.36-1.963.514-1.097.607-1.58.601-3.13-.004-1.24-.023-1.418-.222-2.059a9.314 9.314 0 00-1.937-3.447l-.352-.395-.317.345c-1.183 1.291-1.98 2.868-2.222 4.398-.127.808-.047 2.342.167 3.156.192.735.676 1.72 1.156 2.356.373.494 1.101 1.278 1.186 1.278.031 0 .292-.243.58-.54zm-4.662-3.404c-.244-.667-.375-1.652-.349-2.625l.021-.786-.56-.56a9.179 9.179 0 00-1.086-.917c-.577-.391-1.595-.834-1.918-.834h-.206l.049 1.018c.05 1.037.199 1.737.555 2.599.164.398.21.441.627.601.676.26 1.58.814 2.347 1.439l.697.566a9.709 9.709 0 00-.177-.5zm9.994-.938c.354-.21.853-.463 1.11-.561.464-.178.47-.185.691-.744.3-.759.44-1.587.444-2.62.002-.844 0-.859-.183-.859-.242 0-1.382.547-1.976.947-.255.172-.71.537-1.012.81l-.548.5.054.769c.061.884-.056 1.931-.292 2.611-.088.252-.16.471-.16.487 0 .015.277-.194.615-.465a13.3 13.3 0 011.257-.875z" fill="#18486e"/></svg>